<svg id="54f4f0f5-324a-4c8c-826d-a7ac92ef75d7" data-name="Layer 2" xmlns="http://www.w3.org/2000/svg" viewBox="0 0 490.6 178.41"><defs><style>.e05e3a7a-0b19-4521-a94d-e2635f5d6268{fill:#fdc300;}.\31 43779d4-acc3-472d-ae19-0b074455a258{fill:#414042;}</style></defs><title>logo aceleradora</title><rect class="e05e3a7a-0b19-4521-a94d-e2635f5d6268" x="18.72" y="138.63" width="233.11" height="10.69" rx="5.34" ry="5.34"/><rect class="e05e3a7a-0b19-4521-a94d-e2635f5d6268" x="48.41" y="102.28" width="228.61" height="10.69" rx="5.34" ry="5.34"/><rect class="e05e3a7a-0b19-4521-a94d-e2635f5d6268" x="82.85" y="65.93" width="220.25" height="10.69" rx="5.34" ry="5.34"/><rect class="e05e3a7a-0b19-4521-a94d-e2635f5d6268" x="122.85" y="29.58" width="205.07" height="10.69" rx="5.34" ry="5.34"/><path class="143779d4-acc3-472d-ae19-0b074455a258" d="M459.29,31.44c-13.14-13-31.39-13-32.48-13H380.33c-6,0-8.19,1.77-10.55,4.86L283.37,146.66a5.29,5.29,0,0,0,1.31,7.4h0a5.39,5.39,0,0,0,7.44-1.5l27.94-40.09h41.43a5,5,0,1,0,0-10h-34L375,34.61V149.88a4.93,4.93,0,0,0,4.91,5.11,5.08,5.08,0,0,0,5.09-5.11V112.47h18.09a5,5,0,0,0,5.29-4.82,5.09,5.09,0,0,0-5.29-5.18H385v-74h41.81a54.24,54.24,0,0,1,9.13,1.22A37.07,37.07,0,0,1,452,38.5c6.2,6.39,9.31,15.36,9.31,26.67,0,15.33-5.48,26.4-16.6,32.42a42.55,42.55,0,0,1-17.89,4.87h-5.47a5,5,0,0,0-5.11,5.18,5,5,0,0,0,5.11,4.82h5.47a49.28,49.28,0,0,0,22.45-5.84c10.22-5.29,22.62-17,22.62-41.43C471.88,51,467.69,39.65,459.29,31.44Z"/></svg>