<svg id="0b6cb61d-f230-48c8-868f-962d620b9826" data-name="Layer 2" xmlns="http://www.w3.org/2000/svg" viewBox="0 0 500 112.76"><defs><style>.\32 792510d-ead7-4b30-b815-c145f0630366{fill:#fff;}.a15cd5a7-c2da-4562-a1bd-ca57aa5c4168{fill:#fdc300;}</style></defs><title>logo aceleradora</title><path class="2792510d-ead7-4b30-b815-c145f0630366" d="M93.55,52.11a1.7,1.7,0,0,1-2.19-.89L76.15,14,60.81,51.22a1.93,1.93,0,0,1-1.6,1,1.28,1.28,0,0,1-.65-0.12,1.72,1.72,0,0,1-.95-2.25l17-41a1.7,1.7,0,0,1,1.54-1,1.64,1.64,0,0,1,1.54,1l16.81,41A1.72,1.72,0,0,1,93.55,52.11ZM83.84,38.55a1.72,1.72,0,0,0-1.72-1.72H70a1.72,1.72,0,1,0,0,3.43H82.12A1.72,1.72,0,0,0,83.84,38.55Z"/><path class="2792510d-ead7-4b30-b815-c145f0630366" d="M129.42,23a14,14,0,0,0-.41-3,11.11,11.11,0,0,0-3-5.51C123.68,12.15,120.37,11,116,11c-12.49,0-13.5,9.77-13.5,19,0,3.14,0,8.17,1.78,12.25,2,4.56,5.86,6.75,11.72,6.75,5.62,0,9.59-2,11.72-6a14.25,14.25,0,0,0,1.66-6.16,1.72,1.72,0,0,1,1.78-1.66,1.62,1.62,0,0,1,1.66,1.66,17.84,17.84,0,0,1-2.07,7.81c-2,3.55-6,7.81-14.74,7.81A17.44,17.44,0,0,1,106.4,50a15.85,15.85,0,0,1-5.21-6.33C99.11,39,99.11,33.4,99.11,30c0-3.61,0-9,2-13.62a15.37,15.37,0,0,1,5.21-6.33A17.51,17.51,0,0,1,116,7.59c5.27,0,9.47,1.54,12.43,4.5A16.68,16.68,0,0,1,132.86,23V23a1.62,1.62,0,0,1-1.66,1.66A1.73,1.73,0,0,1,129.42,23Z"/><path class="2792510d-ead7-4b30-b815-c145f0630366" d="M142.45,20V9.49a1.62,1.62,0,0,1,1.66-1.66h24.74a1.62,1.62,0,0,1,1.66,1.66,1.67,1.67,0,0,1-1.66,1.72h-23V20a1.72,1.72,0,0,1-1.72,1.72A1.67,1.67,0,0,1,142.45,20Zm1.66,32.2a1.62,1.62,0,0,1-1.66-1.66V27.07a1.67,1.67,0,0,1,1.66-1.72h18.77a1.69,1.69,0,1,1,0,3.37h-17V48.79h23a1.67,1.67,0,0,1,1.66,1.72,1.62,1.62,0,0,1-1.66,1.66H144.1Z"/><path class="2792510d-ead7-4b30-b815-c145f0630366" d="M177.19,45.42V9.55a1.72,1.72,0,0,1,1.72-1.72,1.67,1.67,0,0,1,1.66,1.72V45.42a1.62,1.62,0,0,1-1.66,1.66A1.67,1.67,0,0,1,177.19,45.42Zm1.72,6.81a1.72,1.72,0,0,1-1.72-1.72,1.67,1.67,0,0,1,1.72-1.66H201.4a1.71,1.71,0,0,1,1.72,1.66,1.76,1.76,0,0,1-1.72,1.72H178.9Z"/><path class="2792510d-ead7-4b30-b815-c145f0630366" d="M210.52,20V9.49a1.62,1.62,0,0,1,1.66-1.66h24.74a1.62,1.62,0,0,1,1.66,1.66,1.67,1.67,0,0,1-1.66,1.72h-23V20a1.72,1.72,0,0,1-1.72,1.72A1.67,1.67,0,0,1,210.52,20Zm1.66,32.2a1.62,1.62,0,0,1-1.66-1.66V27.07a1.67,1.67,0,0,1,1.66-1.72h18.77a1.69,1.69,0,1,1,0,3.37h-17V48.79h23a1.67,1.67,0,0,1,1.66,1.72,1.62,1.62,0,0,1-1.66,1.66H212.18Z"/><path class="2792510d-ead7-4b30-b815-c145f0630366" d="M278.6,51.75a1.52,1.52,0,0,1-1.18.47,1.46,1.46,0,0,1-1.18-.59L264,38.55H249.77v12a1.75,1.75,0,0,1-1.72,1.66,1.71,1.71,0,0,1-1.72-1.66v-41a1.72,1.72,0,0,1,1.72-1.72H262.5c0.41,0,6.75.06,11.25,4.5q4.08,4,4.08,10.83a18.92,18.92,0,0,1-1.42,7.64,13.65,13.65,0,0,1-3.49,4.68,1.7,1.7,0,1,1-2.19-2.6c2.49-2.07,3.67-5.33,3.67-9.71,0-3.55-1-6.45-3-8.47a12.73,12.73,0,0,0-5.68-3,16.06,16.06,0,0,0-3.2-.41H249.77V35.12h15.1a1.83,1.83,0,0,1,1.18.53l12.67,13.73A1.68,1.68,0,0,1,278.6,51.75Z"/><path class="2792510d-ead7-4b30-b815-c145f0630366" d="M320.92,52.11a1.7,1.7,0,0,1-2.19-.89L303.52,14,288.19,51.22a1.92,1.92,0,0,1-1.6,1,1.27,1.27,0,0,1-.65-0.12,1.72,1.72,0,0,1-.95-2.25l17-41a1.7,1.7,0,0,1,1.54-1,1.63,1.63,0,0,1,1.54,1l16.81,41A1.72,1.72,0,0,1,320.92,52.11Zm-9.71-13.56a1.72,1.72,0,0,0-1.72-1.72H297.42a1.72,1.72,0,1,0,0,3.43H309.5A1.72,1.72,0,0,0,311.22,38.55Z"/><path class="2792510d-ead7-4b30-b815-c145f0630366" d="M329.8,52.23a1.67,1.67,0,0,1-1.66-1.72v-41a1.67,1.67,0,0,1,1.66-1.72h11.66a19.34,19.34,0,0,1,9.12,2.78,18.32,18.32,0,0,1,6.28,6.81A27.19,27.19,0,0,1,359.58,30,28.17,28.17,0,0,1,357,42.64a17.41,17.41,0,0,1-5.8,6.75,17,17,0,0,1-8.53,2.84H329.8Zm12.9-3.37a13.11,13.11,0,0,0,6.75-2.37c4.44-3.14,6.75-8.58,6.75-16.46s-2.49-13.32-7.34-16.4a15.2,15.2,0,0,0-7.4-2.43h-9.94V48.85H342.7Z"/><path class="2792510d-ead7-4b30-b815-c145f0630366" d="M370.76,47.2c-3-3.61-4.5-9.23-4.5-17.17a44.93,44.93,0,0,1,1-10.12,16.48,16.48,0,0,1,3.14-7,13.14,13.14,0,0,1,5.56-4,20.12,20.12,0,0,1,7.46-1.18A17.23,17.23,0,0,1,391,9.07a13.18,13.18,0,0,1,5.56,4.26c2.66,3.67,4,9.12,4,16.69a42.92,42.92,0,0,1-1,9.71,18.56,18.56,0,0,1-3.37,7c-2.84,3.73-7.1,5.62-12.67,5.62C377.69,52.41,373.55,50.69,370.76,47.2ZM373,15c-2.25,3-3.37,7.87-3.37,15s1.24,12,3.61,15c2.13,2.66,5.51,3.91,10.18,3.91s7.87-1.42,10.12-4.38c2.31-3.14,3.55-8.05,3.55-14.56,0-6.75-1.07-11.48-3.26-14.56s-5.56-4.38-10.42-4.38C378.4,11.09,375.09,12.33,373,15Z"/><path class="2792510d-ead7-4b30-b815-c145f0630366" d="M441.21,51.75a1.52,1.52,0,0,1-1.18.47,1.45,1.45,0,0,1-1.18-.59l-12.2-13.08H412.38v12a1.75,1.75,0,0,1-1.72,1.66,1.71,1.71,0,0,1-1.72-1.66v-41a1.72,1.72,0,0,1,1.72-1.72h14.44c0.41,0,6.75.06,11.25,4.5q4.08,4,4.08,10.83A18.92,18.92,0,0,1,439,30.8a13.65,13.65,0,0,1-3.49,4.68,1.7,1.7,0,1,1-2.19-2.6c2.49-2.07,3.67-5.33,3.67-9.71,0-3.55-1-6.45-3-8.47a12.73,12.73,0,0,0-5.68-3,16.06,16.06,0,0,0-3.2-.41H412.38V35.12h15.1a1.82,1.82,0,0,1,1.18.53l12.67,13.73A1.68,1.68,0,0,1,441.21,51.75Z"/><path class="2792510d-ead7-4b30-b815-c145f0630366" d="M483.53,52.11a1.7,1.7,0,0,1-2.19-.89L466.13,14,450.8,51.22a1.92,1.92,0,0,1-1.6,1,1.27,1.27,0,0,1-.65-0.12,1.72,1.72,0,0,1-.95-2.25l17-41a1.7,1.7,0,0,1,1.54-1,1.63,1.63,0,0,1,1.54,1l16.81,41A1.72,1.72,0,0,1,483.53,52.11Zm-9.71-13.56a1.72,1.72,0,0,0-1.72-1.72H460a1.72,1.72,0,1,0,0,3.43h12.08A1.72,1.72,0,0,0,473.82,38.55Z"/><path class="2792510d-ead7-4b30-b815-c145f0630366" d="M144,107.43a1.67,1.67,0,0,1-1.66-1.72v-41A1.67,1.67,0,0,1,144,63h11.66a19.34,19.34,0,0,1,9.12,2.78A18.3,18.3,0,0,1,171,72.62a27.18,27.18,0,0,1,2.72,12.61,28.19,28.19,0,0,1-2.55,12.61,17.42,17.42,0,0,1-5.8,6.75,17,17,0,0,1-8.52,2.84H144Zm12.91-3.37a13.11,13.11,0,0,0,6.75-2.37c4.44-3.14,6.75-8.58,6.75-16.46s-2.49-13.32-7.34-16.4a15.2,15.2,0,0,0-7.4-2.43h-9.95v37.65h11.19Z"/><path class="2792510d-ead7-4b30-b815-c145f0630366" d="M183,75.17V64.69A1.62,1.62,0,0,1,184.67,63h24.74a1.62,1.62,0,0,1,1.66,1.66,1.67,1.67,0,0,1-1.66,1.72h-23v8.76a1.72,1.72,0,0,1-1.72,1.72A1.67,1.67,0,0,1,183,75.17Zm1.66,32.2a1.62,1.62,0,0,1-1.66-1.66V82.27a1.67,1.67,0,0,1,1.66-1.72h18.77a1.69,1.69,0,1,1,0,3.37h-17V104h23a1.67,1.67,0,0,1,1.66,1.72,1.62,1.62,0,0,1-1.66,1.66H184.67Z"/><path class="2792510d-ead7-4b30-b815-c145f0630366" d="M278.49,78.3c0,7.93-4,11.78-7.34,13.5a16.5,16.5,0,0,1-7.28,2h-1.77a1.69,1.69,0,0,1-1.66-1.66,1.72,1.72,0,0,1,1.66-1.78h1.77a13.41,13.41,0,0,0,5.8-1.54c3.61-2,5.39-5.51,5.39-10.48,0-3.67-1-6.57-3-8.64a12,12,0,0,0-5.21-2.84,15.25,15.25,0,0,0-3-.36h-13.5V90.32h5.8a1.73,1.73,0,0,1,1.72,1.78,1.71,1.71,0,0,1-1.72,1.66h-5.8v12a1.71,1.71,0,0,1-1.72,1.66,1.65,1.65,0,0,1-1.66-1.66V64.69A1.65,1.65,0,0,1,248.65,63h15.21a16.21,16.21,0,0,1,10.54,4.26C277.12,70,278.49,73.69,278.49,78.3Z"/><path class="2792510d-ead7-4b30-b815-c145f0630366" d="M285.29,75.17V64.69A1.62,1.62,0,0,1,286.95,63h24.74a1.62,1.62,0,0,1,1.66,1.66,1.67,1.67,0,0,1-1.66,1.72h-23v8.76a1.72,1.72,0,0,1-1.72,1.72A1.67,1.67,0,0,1,285.29,75.17Zm1.66,32.2a1.62,1.62,0,0,1-1.66-1.66V82.27a1.67,1.67,0,0,1,1.66-1.72h18.77a1.69,1.69,0,1,1,0,3.37h-17V104h23a1.67,1.67,0,0,1,1.66,1.72,1.62,1.62,0,0,1-1.66,1.66H286.95Z"/><path class="2792510d-ead7-4b30-b815-c145f0630366" d="M385.05,102.4c-3-3.61-4.5-9.23-4.5-17.17a44.93,44.93,0,0,1,1-10.12,16.48,16.48,0,0,1,3.14-7,13.14,13.14,0,0,1,5.56-4,20.12,20.12,0,0,1,7.46-1.18,17.23,17.23,0,0,1,7.52,1.42,13.18,13.18,0,0,1,5.56,4.26c2.66,3.67,4,9.12,4,16.69a42.92,42.92,0,0,1-1,9.71,18.59,18.59,0,0,1-3.37,7c-2.84,3.73-7.1,5.62-12.67,5.62C392,107.61,387.83,105.89,385.05,102.4Zm2.25-32.2c-2.25,3-3.38,7.87-3.38,15s1.24,12,3.61,15c2.13,2.66,5.51,3.91,10.18,3.91s7.87-1.42,10.12-4.38c2.31-3.14,3.55-8.05,3.55-14.56,0-6.75-1.07-11.48-3.26-14.56s-5.56-4.38-10.42-4.38C392.69,66.29,389.37,67.53,387.3,70.19Z"/><path class="2792510d-ead7-4b30-b815-c145f0630366" d="M452.21,107.31a1.7,1.7,0,0,1-2.19-.89L434.81,69.19l-15.33,37.24a1.92,1.92,0,0,1-1.6,1,1.27,1.27,0,0,1-.65-0.12,1.72,1.72,0,0,1-.95-2.25l17-41a1.7,1.7,0,0,1,1.54-1,1.63,1.63,0,0,1,1.54,1l16.81,41A1.72,1.72,0,0,1,452.21,107.31Zm-9.71-13.56A1.72,1.72,0,0,0,440.79,92H428.71a1.72,1.72,0,1,0,0,3.43h12.08A1.72,1.72,0,0,0,442.51,93.75Z"/><rect class="a15cd5a7-c2da-4562-a1bd-ca57aa5c4168" x="15.39" y="103.96" width="117.63" height="3.47" rx="1.73" ry="1.73"/><rect class="a15cd5a7-c2da-4562-a1bd-ca57aa5c4168" x="25.02" y="92.17" width="107.99" height="3.47" rx="1.73" ry="1.73"/><rect class="a15cd5a7-c2da-4562-a1bd-ca57aa5c4168" x="36.2" y="80.38" width="96.82" height="3.47" rx="1.73" ry="1.73"/><rect class="a15cd5a7-c2da-4562-a1bd-ca57aa5c4168" x="49.18" y="68.59" width="83.84" height="3.47" rx="1.73" ry="1.73"/><path class="2792510d-ead7-4b30-b815-c145f0630366" d="M340.23,76.53A1.8,1.8,0,0,0,342,74.81V74.75a14.76,14.76,0,0,0-1.77-5.92c-1.54-2.72-4.79-6-11.36-6a16.42,16.42,0,0,0-7.25,1.54,10.4,10.4,0,0,0-4,3.79,12.1,12.1,0,0,0-1.49,4.08,16.85,16.85,0,0,0-.18,2.55,13,13,0,0,0,1.3,6,9.75,9.75,0,0,0,3.14,3.79,10.34,10.34,0,0,0,4.11,1.85h0.09c2.49,0.56,5.35.43,7.4,0.8,4.27,0.89,6.4,3.88,6.4,8.82,0,5.45-3.08,8.17-9.47,8.17-4,0-6.75-1.3-8.35-4a8.93,8.93,0,0,1-1.18-4.14,1.81,1.81,0,0,0-1.72-1.78,1.77,1.77,0,0,0-1.72,1.78,13.36,13.36,0,0,0,1.66,5.8c1.48,2.61,4.68,5.74,11.31,5.74a16.75,16.75,0,0,0,7.16-1.42,10.24,10.24,0,0,0,4.14-3.61,12.43,12.43,0,0,0,1.6-6.51,14.66,14.66,0,0,0-1.13-6,9.3,9.3,0,0,0-2.9-3.79,10.35,10.35,0,0,0-4-2.11l0,0c-2.16-.77-5-0.34-8.2-1-5.12-1.14-6.21-5.12-6.21-8.39,0-3.85,1.66-8.58,9.47-8.58,3.91,0,6.75,1.48,8.29,4.2a11.84,11.84,0,0,1,1.36,4.44A1.72,1.72,0,0,0,340.23,76.53Z"/><path class="2792510d-ead7-4b30-b815-c145f0630366" d="M373.23,76.53A1.8,1.8,0,0,0,375,74.81V74.75a14.76,14.76,0,0,0-1.77-5.92c-1.54-2.72-4.79-6-11.36-6a16.42,16.42,0,0,0-7.25,1.54,10.4,10.4,0,0,0-4,3.79,12.1,12.1,0,0,0-1.49,4.08,16.85,16.85,0,0,0-.18,2.55,13,13,0,0,0,1.3,6,9.75,9.75,0,0,0,3.14,3.79,10.34,10.34,0,0,0,4.11,1.85h0.09c2.49,0.56,5.35.43,7.4,0.8,4.27,0.89,6.4,3.88,6.4,8.82,0,5.45-3.08,8.17-9.47,8.17-4,0-6.75-1.3-8.35-4a8.93,8.93,0,0,1-1.18-4.14,1.81,1.81,0,0,0-1.72-1.78,1.77,1.77,0,0,0-1.72,1.78,13.36,13.36,0,0,0,1.66,5.8c1.48,2.61,4.68,5.74,11.31,5.74a16.75,16.75,0,0,0,7.16-1.42,10.24,10.24,0,0,0,4.14-3.61,12.43,12.43,0,0,0,1.6-6.51,14.66,14.66,0,0,0-1.13-6,9.3,9.3,0,0,0-2.9-3.79,10.35,10.35,0,0,0-4-2.11l0,0c-2.16-.77-5-0.34-8.2-1-5.12-1.14-6.21-5.12-6.21-8.39,0-3.85,1.66-8.58,9.47-8.58,3.91,0,6.75,1.48,8.29,4.2a11.84,11.84,0,0,1,1.36,4.44A1.72,1.72,0,0,0,373.23,76.53Z"/><path class="2792510d-ead7-4b30-b815-c145f0630366" d="M482.23,76.53A1.8,1.8,0,0,0,484,74.81V74.75a14.76,14.76,0,0,0-1.77-5.92c-1.54-2.72-4.79-6-11.36-6a16.42,16.42,0,0,0-7.25,1.54,10.4,10.4,0,0,0-4,3.79,12.1,12.1,0,0,0-1.49,4.08,16.85,16.85,0,0,0-.18,2.55,13,13,0,0,0,1.3,6,9.75,9.75,0,0,0,3.14,3.79,10.34,10.34,0,0,0,4.11,1.85h0.09c2.49,0.56,5.35.43,7.4,0.8,4.27,0.89,6.4,3.88,6.4,8.82,0,5.45-3.08,8.17-9.47,8.17-4,0-6.75-1.3-8.35-4a8.93,8.93,0,0,1-1.18-4.14,1.81,1.81,0,0,0-1.72-1.78,1.77,1.77,0,0,0-1.72,1.78,13.36,13.36,0,0,0,1.66,5.8c1.48,2.61,4.68,5.74,11.31,5.74a16.75,16.75,0,0,0,7.16-1.42,10.24,10.24,0,0,0,4.14-3.61,12.43,12.43,0,0,0,1.6-6.51,14.66,14.66,0,0,0-1.13-6,9.3,9.3,0,0,0-2.9-3.79,10.35,10.35,0,0,0-4-2.11l0,0c-2.16-.77-5-0.34-8.2-1-5.12-1.14-6.21-5.12-6.21-8.39,0-3.85,1.66-8.58,9.47-8.58,3.91,0,6.75,1.48,8.29,4.2a11.84,11.84,0,0,1,1.36,4.44A1.72,1.72,0,0,0,482.23,76.53Z"/></svg>